<svg xmlns="http://www.w3.org/2000/svg" xmlns:xlink="http://www.w3.org/1999/xlink" width="200" zoomAndPan="magnify" viewBox="0 0 150 112.499997" height="150" preserveAspectRatio="xMidYMid meet" version="1.0"><defs><clipPath id="5f8a49e7ff"><path d="M 0.332031 0 L 149.667969 0 L 149.667969 112.003906 L 0.332031 112.003906 Z M 0.332031 0 " clip-rule="nonzero"/></clipPath><clipPath id="3ce723550d"><path d="M 29.8125 27 L 47 27 L 47 89 L 29.8125 89 Z M 29.8125 27 " clip-rule="nonzero"/></clipPath><clipPath id="74050dac27"><path d="M 29.8125 11 L 76 11 L 76 38 L 29.8125 38 Z M 29.8125 11 " clip-rule="nonzero"/></clipPath><clipPath id="1add6c45a8"><path d="M 68 51 L 86 51 L 86 112.003906 L 68 112.003906 Z M 68 51 " clip-rule="nonzero"/></clipPath><clipPath id="11907127a9"><path d="M 68.898438 34.570312 L 114.160156 34.570312 L 114.160156 61.125 L 68.898438 61.125 Z M 68.898438 34.570312 " clip-rule="nonzero"/></clipPath><clipPath id="a42c985842"><path d="M 85.460938 44.25 L 114.160156 44.25 L 114.160156 112.003906 L 85.460938 112.003906 Z M 85.460938 44.25 " clip-rule="nonzero"/></clipPath></defs><g clip-path="url(#5f8a49e7ff)"><path fill="#ffffff" d="M 0.332031 0 L 149.667969 0 L 149.667969 112.003906 L 0.332031 112.003906 Z M 0.332031 0 " fill-opacity="1" fill-rule="nonzero"/><path fill="#ffffff" d="M 0.332031 0 L 149.667969 0 L 149.667969 112.003906 L 0.332031 112.003906 Z M 0.332031 0 " fill-opacity="1" fill-rule="nonzero"/></g><g clip-path="url(#3ce723550d)"><path fill="#364852" d="M 46.601562 88.296875 L 29.835938 78.578125 L 29.835938 27.53125 L 46.601562 37.25 L 46.601562 88.296875 " fill-opacity="1" fill-rule="nonzero"/></g><path fill="#30383f" d="M 37.605469 37.527344 L 31.898438 34.222656 L 31.898438 32.046875 L 37.605469 35.351562 L 37.605469 37.527344 " fill-opacity="1" fill-rule="nonzero"/><path fill="#30383f" d="M 44.539062 41.550781 L 38.835938 38.242188 L 38.835938 36.066406 L 44.539062 39.371094 L 44.539062 41.550781 " fill-opacity="1" fill-rule="nonzero"/><path fill="#30383f" d="M 37.605469 40.917969 L 31.898438 37.613281 L 31.898438 35.4375 L 37.605469 38.742188 L 37.605469 40.917969 " fill-opacity="1" fill-rule="nonzero"/><path fill="#30383f" d="M 44.539062 44.9375 L 38.835938 41.632812 L 38.835938 39.457031 L 44.539062 42.761719 L 44.539062 44.9375 " fill-opacity="1" fill-rule="nonzero"/><path fill="#30383f" d="M 44.539062 47.730469 L 31.898438 40.40625 L 31.898438 39.375 L 44.539062 46.703125 L 44.539062 47.730469 " fill-opacity="1" fill-rule="nonzero"/><path fill="#4d92d5" d="M 39.785156 48.394531 L 36.65625 46.578125 C 36.230469 46.332031 35.886719 45.671875 35.886719 45.105469 L 35.886719 44.503906 C 35.886719 43.9375 36.230469 43.675781 36.65625 43.921875 L 39.785156 45.734375 C 40.210938 45.980469 40.554688 46.640625 40.554688 47.210938 L 40.554688 47.8125 C 40.554688 48.378906 40.210938 48.640625 39.785156 48.394531 " fill-opacity="1" fill-rule="nonzero"/><path fill="#30383f" d="M 44.539062 55.417969 L 31.898438 48.09375 L 31.898438 44.765625 L 44.539062 52.089844 L 44.539062 55.417969 " fill-opacity="1" fill-rule="nonzero"/><path fill="#4d92d5" d="M 43.847656 53.808594 L 37.257812 49.988281 L 37.257812 49.082031 L 43.847656 52.902344 L 43.847656 53.808594 " fill-opacity="1" fill-rule="nonzero"/><path fill="#b2aede" d="M 33.691406 47.460938 C 33.691406 47.742188 33.496094 47.855469 33.253906 47.714844 C 33.011719 47.574219 32.816406 47.234375 32.816406 46.957031 C 32.816406 46.675781 33.011719 46.5625 33.253906 46.703125 C 33.496094 46.84375 33.691406 47.183594 33.691406 47.460938 " fill-opacity="1" fill-rule="nonzero"/><path fill="#b2aede" d="M 35.003906 48.226562 C 35.003906 48.507812 34.804688 48.621094 34.566406 48.480469 C 34.324219 48.339844 34.128906 48 34.128906 47.71875 C 34.128906 47.4375 34.324219 47.324219 34.566406 47.464844 C 34.804688 47.605469 35.003906 47.945312 35.003906 48.226562 " fill-opacity="1" fill-rule="nonzero"/><path fill="#b2aede" d="M 36.3125 48.992188 C 36.3125 49.269531 36.117188 49.382812 35.875 49.242188 C 35.632812 49.105469 35.4375 48.761719 35.4375 48.484375 C 35.4375 48.203125 35.632812 48.089844 35.875 48.230469 C 36.117188 48.371094 36.3125 48.710938 36.3125 48.992188 " fill-opacity="1" fill-rule="nonzero"/><path fill="#30383f" d="M 44.539062 59.6875 L 31.898438 52.363281 L 31.898438 49.035156 L 44.539062 56.359375 L 44.539062 59.6875 " fill-opacity="1" fill-rule="nonzero"/><path fill="#4d92d5" d="M 43.847656 58.074219 L 37.257812 54.253906 L 37.257812 53.351562 L 43.847656 57.171875 L 43.847656 58.074219 " fill-opacity="1" fill-rule="nonzero"/><path fill="#b2aede" d="M 33.691406 51.730469 C 33.691406 52.011719 33.496094 52.125 33.253906 51.984375 C 33.011719 51.84375 32.816406 51.503906 32.816406 51.226562 C 32.816406 50.945312 33.011719 50.832031 33.253906 50.972656 C 33.496094 51.113281 33.691406 51.453125 33.691406 51.730469 " fill-opacity="1" fill-rule="nonzero"/><path fill="#b2aede" d="M 35.003906 52.496094 C 35.003906 52.773438 34.804688 52.890625 34.566406 52.75 C 34.324219 52.609375 34.128906 52.269531 34.128906 51.988281 C 34.128906 51.707031 34.324219 51.59375 34.566406 51.734375 C 34.804688 51.875 35.003906 52.214844 35.003906 52.496094 " fill-opacity="1" fill-rule="nonzero"/><path fill="#b2aede" d="M 36.3125 53.261719 C 36.3125 53.539062 36.117188 53.652344 35.875 53.511719 C 35.632812 53.375 35.4375 53.03125 35.4375 52.75 C 35.4375 52.472656 35.632812 52.359375 35.875 52.5 C 36.117188 52.636719 36.3125 52.980469 36.3125 53.261719 " fill-opacity="1" fill-rule="nonzero"/><path fill="#30383f" d="M 44.539062 63.957031 L 31.898438 56.628906 L 31.898438 53.300781 L 44.539062 60.628906 L 44.539062 63.957031 " fill-opacity="1" fill-rule="nonzero"/><path fill="#4d92d5" d="M 43.847656 62.34375 L 37.257812 58.523438 L 37.257812 57.621094 L 43.847656 61.441406 L 43.847656 62.34375 " fill-opacity="1" fill-rule="nonzero"/><path fill="#b2aede" d="M 33.691406 56 C 33.691406 56.28125 33.496094 56.394531 33.253906 56.253906 C 33.011719 56.113281 32.816406 55.773438 32.816406 55.492188 C 32.816406 55.214844 33.011719 55.101562 33.253906 55.242188 C 33.496094 55.378906 33.691406 55.722656 33.691406 56 " fill-opacity="1" fill-rule="nonzero"/><path fill="#b2aede" d="M 35.003906 56.765625 C 35.003906 57.042969 34.804688 57.15625 34.566406 57.019531 C 34.324219 56.878906 34.128906 56.539062 34.128906 56.257812 C 34.128906 55.976562 34.324219 55.863281 34.566406 56.003906 C 34.804688 56.144531 35.003906 56.484375 35.003906 56.765625 " fill-opacity="1" fill-rule="nonzero"/><path fill="#b2aede" d="M 36.3125 57.527344 C 36.3125 57.808594 36.117188 57.921875 35.875 57.78125 C 35.632812 57.640625 35.4375 57.300781 35.4375 57.019531 C 35.4375 56.742188 35.632812 56.628906 35.875 56.765625 C 36.117188 56.90625 36.3125 57.25 36.3125 57.527344 " fill-opacity="1" fill-rule="nonzero"/><path fill="#30383f" d="M 44.539062 68.226562 L 31.898438 60.898438 L 31.898438 57.570312 L 44.539062 64.898438 L 44.539062 68.226562 " fill-opacity="1" fill-rule="nonzero"/><path fill="#4d92d5" d="M 43.847656 66.613281 L 37.257812 62.792969 L 37.257812 61.890625 L 43.847656 65.707031 L 43.847656 66.613281 " fill-opacity="1" fill-rule="nonzero"/><path fill="#b2aede" d="M 33.691406 60.269531 C 33.691406 60.550781 33.496094 60.664062 33.253906 60.523438 C 33.011719 60.382812 32.816406 60.042969 32.816406 59.761719 C 32.816406 59.484375 33.011719 59.371094 33.253906 59.507812 C 33.496094 59.648438 33.691406 59.988281 33.691406 60.269531 " fill-opacity="1" fill-rule="nonzero"/><path fill="#b2aede" d="M 35.003906 61.035156 C 35.003906 61.3125 34.804688 61.425781 34.566406 61.285156 C 34.324219 61.148438 34.128906 60.808594 34.128906 60.527344 C 34.128906 60.246094 34.324219 60.132812 34.566406 60.273438 C 34.804688 60.414062 35.003906 60.753906 35.003906 61.035156 " fill-opacity="1" fill-rule="nonzero"/><path fill="#b2aede" d="M 36.3125 61.796875 C 36.3125 62.078125 36.117188 62.191406 35.875 62.050781 C 35.632812 61.910156 35.4375 61.570312 35.4375 61.289062 C 35.4375 61.011719 35.632812 60.898438 35.875 61.035156 C 36.117188 61.175781 36.3125 61.519531 36.3125 61.796875 " fill-opacity="1" fill-rule="nonzero"/><path fill="#30383f" d="M 44.539062 72.496094 L 31.898438 65.167969 L 31.898438 61.839844 L 44.539062 69.167969 L 44.539062 72.496094 " fill-opacity="1" fill-rule="nonzero"/><path fill="#4d92d5" d="M 43.847656 70.882812 L 37.257812 67.0625 L 37.257812 66.160156 L 43.847656 69.976562 L 43.847656 70.882812 " fill-opacity="1" fill-rule="nonzero"/><path fill="#b2aede" d="M 33.691406 64.539062 C 33.691406 64.820312 33.496094 64.933594 33.253906 64.792969 C 33.011719 64.652344 32.816406 64.3125 32.816406 64.03125 C 32.816406 63.75 33.011719 63.636719 33.253906 63.777344 C 33.496094 63.917969 33.691406 64.257812 33.691406 64.539062 " fill-opacity="1" fill-rule="nonzero"/><path fill="#b2aede" d="M 35.003906 65.300781 C 35.003906 65.582031 34.804688 65.695312 34.566406 65.554688 C 34.324219 65.414062 34.128906 65.074219 34.128906 64.796875 C 34.128906 64.515625 34.324219 64.402344 34.566406 64.542969 C 34.804688 64.683594 35.003906 65.023438 35.003906 65.300781 " fill-opacity="1" fill-rule="nonzero"/><path fill="#b2aede" d="M 36.3125 66.066406 C 36.3125 66.347656 36.117188 66.460938 35.875 66.320312 C 35.632812 66.179688 35.4375 65.839844 35.4375 65.558594 C 35.4375 65.277344 35.632812 65.164062 35.875 65.304688 C 36.117188 65.445312 36.3125 65.785156 36.3125 66.066406 " fill-opacity="1" fill-rule="nonzero"/><path fill="#30383f" d="M 44.539062 76.761719 L 31.898438 69.4375 L 31.898438 66.109375 L 44.539062 73.433594 L 44.539062 76.761719 " fill-opacity="1" fill-rule="nonzero"/><path fill="#4d92d5" d="M 43.847656 75.152344 L 37.257812 71.332031 L 37.257812 70.425781 L 43.847656 74.246094 L 43.847656 75.152344 " fill-opacity="1" fill-rule="nonzero"/><path fill="#b2aede" d="M 33.691406 68.808594 C 33.691406 69.089844 33.496094 69.203125 33.253906 69.0625 C 33.011719 68.921875 32.816406 68.582031 32.816406 68.300781 C 32.816406 68.019531 33.011719 67.90625 33.253906 68.046875 C 33.496094 68.1875 33.691406 68.527344 33.691406 68.808594 " fill-opacity="1" fill-rule="nonzero"/><path fill="#b2aede" d="M 35.003906 69.570312 C 35.003906 69.851562 34.804688 69.964844 34.566406 69.824219 C 34.324219 69.683594 34.128906 69.34375 34.128906 69.066406 C 34.128906 68.785156 34.324219 68.671875 34.566406 68.8125 C 34.804688 68.953125 35.003906 69.292969 35.003906 69.570312 " fill-opacity="1" fill-rule="nonzero"/><path fill="#b2aede" d="M 36.3125 70.335938 C 36.3125 70.617188 36.117188 70.730469 35.875 70.589844 C 35.632812 70.449219 35.4375 70.109375 35.4375 69.828125 C 35.4375 69.546875 35.632812 69.433594 35.875 69.574219 C 36.117188 69.714844 36.3125 70.054688 36.3125 70.335938 " fill-opacity="1" fill-rule="nonzero"/><path fill="#30383f" d="M 44.539062 81.03125 L 31.898438 73.707031 L 31.898438 70.378906 L 44.539062 77.703125 L 44.539062 81.03125 " fill-opacity="1" fill-rule="nonzero"/><path fill="#4d92d5" d="M 43.847656 79.421875 L 37.257812 75.601562 L 37.257812 74.695312 L 43.847656 78.515625 L 43.847656 79.421875 " fill-opacity="1" fill-rule="nonzero"/><path fill="#b2aede" d="M 33.691406 73.078125 C 33.691406 73.355469 33.496094 73.472656 33.253906 73.332031 C 33.011719 73.191406 32.816406 72.847656 32.816406 72.570312 C 32.816406 72.289062 33.011719 72.175781 33.253906 72.316406 C 33.496094 72.457031 33.691406 72.796875 33.691406 73.078125 " fill-opacity="1" fill-rule="nonzero"/><path fill="#b2aede" d="M 35.003906 73.839844 C 35.003906 74.121094 34.804688 74.234375 34.566406 74.09375 C 34.324219 73.953125 34.128906 73.613281 34.128906 73.332031 C 34.128906 73.054688 34.324219 72.941406 34.566406 73.082031 C 34.804688 73.21875 35.003906 73.5625 35.003906 73.839844 " fill-opacity="1" fill-rule="nonzero"/><path fill="#b2aede" d="M 36.3125 74.605469 C 36.3125 74.882812 36.117188 74.996094 35.875 74.859375 C 35.632812 74.71875 35.4375 74.378906 35.4375 74.097656 C 35.4375 73.816406 35.632812 73.703125 35.875 73.84375 C 36.117188 73.984375 36.3125 74.324219 36.3125 74.605469 " fill-opacity="1" fill-rule="nonzero"/><g clip-path="url(#74050dac27)"><path fill="#506c7f" d="M 75.0625 20.804688 L 46.601562 37.296875 L 29.835938 27.582031 L 58.296875 11.085938 L 75.0625 20.804688 " fill-opacity="1" fill-rule="nonzero"/></g><path fill="#30383f" d="M 75.0625 71.800781 L 46.601562 88.296875 L 46.601562 37.25 L 75.0625 20.753906 L 75.0625 71.800781 " fill-opacity="1" fill-rule="nonzero"/><path fill="#364852" d="M 73.214844 69.554688 L 48.453125 83.90625 L 48.453125 39.496094 L 73.214844 25.144531 L 73.214844 69.554688 " fill-opacity="1" fill-rule="nonzero"/><path fill="#30383f" d="M 72 68.082031 L 49.667969 81.027344 L 49.667969 40.96875 L 72 28.023438 L 72 68.082031 " fill-opacity="1" fill-rule="nonzero"/><path fill="#364852" d="M 69.980469 43.828125 L 51.683594 54.433594 L 51.683594 51.988281 L 69.980469 41.382812 L 69.980469 43.828125 " fill-opacity="1" fill-rule="nonzero"/><path fill="#364852" d="M 69.980469 48.238281 L 51.683594 58.84375 L 51.683594 56.398438 L 69.980469 45.792969 L 69.980469 48.238281 " fill-opacity="1" fill-rule="nonzero"/><path fill="#364852" d="M 69.980469 52.652344 L 51.683594 63.253906 L 51.683594 60.8125 L 69.980469 50.207031 L 69.980469 52.652344 " fill-opacity="1" fill-rule="nonzero"/><path fill="#364852" d="M 69.980469 57.0625 L 51.683594 67.667969 L 51.683594 65.222656 L 69.980469 54.617188 L 69.980469 57.0625 " fill-opacity="1" fill-rule="nonzero"/><path fill="#364852" d="M 66.152344 100.148438 L 49.386719 90.433594 L 49.386719 39.382812 L 66.152344 49.101562 L 66.152344 100.148438 " fill-opacity="1" fill-rule="nonzero"/><path fill="#30383f" d="M 57.152344 49.382812 L 51.449219 46.078125 L 51.449219 43.898438 L 57.152344 47.203125 L 57.152344 49.382812 " fill-opacity="1" fill-rule="nonzero"/><path fill="#30383f" d="M 64.089844 53.402344 L 58.382812 50.09375 L 58.382812 47.917969 L 64.089844 51.222656 L 64.089844 53.402344 " fill-opacity="1" fill-rule="nonzero"/><path fill="#30383f" d="M 57.152344 52.773438 L 51.449219 49.464844 L 51.449219 47.289062 L 57.152344 50.597656 L 57.152344 52.773438 " fill-opacity="1" fill-rule="nonzero"/><path fill="#30383f" d="M 64.089844 56.792969 L 58.382812 53.484375 L 58.382812 51.308594 L 64.089844 54.613281 L 64.089844 56.792969 " fill-opacity="1" fill-rule="nonzero"/><path fill="#30383f" d="M 64.089844 59.585938 L 51.449219 52.257812 L 51.449219 51.230469 L 64.089844 58.554688 L 64.089844 59.585938 " fill-opacity="1" fill-rule="nonzero"/><path fill="#4d92d5" d="M 59.332031 60.246094 L 56.203125 58.433594 C 55.777344 58.1875 55.433594 57.527344 55.433594 56.957031 L 55.433594 56.355469 C 55.433594 55.789062 55.777344 55.527344 56.203125 55.773438 L 59.332031 57.589844 C 59.757812 57.835938 60.101562 58.492188 60.101562 59.0625 L 60.101562 59.664062 C 60.101562 60.230469 59.757812 60.492188 59.332031 60.246094 " fill-opacity="1" fill-rule="nonzero"/><path fill="#30383f" d="M 64.089844 67.269531 L 51.449219 59.945312 L 51.449219 56.617188 L 64.089844 63.941406 L 64.089844 67.269531 " fill-opacity="1" fill-rule="nonzero"/><path fill="#4d92d5" d="M 63.398438 65.660156 L 56.808594 61.839844 L 56.808594 60.933594 L 63.398438 64.753906 L 63.398438 65.660156 " fill-opacity="1" fill-rule="nonzero"/><path fill="#b2aede" d="M 53.238281 59.316406 C 53.238281 59.597656 53.042969 59.707031 52.800781 59.570312 C 52.558594 59.429688 52.367188 59.089844 52.367188 58.808594 C 52.367188 58.527344 52.558594 58.414062 52.800781 58.554688 C 53.042969 58.695312 53.238281 59.035156 53.238281 59.316406 " fill-opacity="1" fill-rule="nonzero"/><path fill="#b2aede" d="M 54.550781 60.078125 C 54.550781 60.359375 54.355469 60.472656 54.113281 60.332031 C 53.871094 60.191406 53.675781 59.851562 53.675781 59.570312 C 53.675781 59.292969 53.871094 59.179688 54.113281 59.320312 C 54.355469 59.457031 54.550781 59.796875 54.550781 60.078125 " fill-opacity="1" fill-rule="nonzero"/><path fill="#b2aede" d="M 55.863281 60.84375 C 55.863281 61.121094 55.667969 61.238281 55.425781 61.097656 C 55.183594 60.957031 54.988281 60.617188 54.988281 60.335938 C 54.988281 60.054688 55.183594 59.941406 55.425781 60.082031 C 55.667969 60.222656 55.863281 60.5625 55.863281 60.84375 " fill-opacity="1" fill-rule="nonzero"/><path fill="#30383f" d="M 64.089844 71.539062 L 51.449219 64.214844 L 51.449219 60.886719 L 64.089844 68.210938 L 64.089844 71.539062 " fill-opacity="1" fill-rule="nonzero"/><path fill="#4d92d5" d="M 63.398438 69.929688 L 56.808594 66.109375 L 56.808594 65.203125 L 63.398438 69.023438 L 63.398438 69.929688 " fill-opacity="1" fill-rule="nonzero"/><path fill="#b2aede" d="M 53.238281 63.585938 C 53.238281 63.863281 53.042969 63.976562 52.800781 63.839844 C 52.558594 63.699219 52.367188 63.359375 52.367188 63.078125 C 52.367188 62.796875 52.558594 62.683594 52.800781 62.824219 C 53.042969 62.964844 53.238281 63.304688 53.238281 63.585938 " fill-opacity="1" fill-rule="nonzero"/><path fill="#b2aede" d="M 54.550781 64.347656 C 54.550781 64.628906 54.355469 64.742188 54.113281 64.601562 C 53.871094 64.460938 53.675781 64.121094 53.675781 63.839844 C 53.675781 63.5625 53.871094 63.449219 54.113281 63.589844 C 54.355469 63.726562 54.550781 64.066406 54.550781 64.347656 " fill-opacity="1" fill-rule="nonzero"/><path fill="#b2aede" d="M 55.863281 65.113281 C 55.863281 65.390625 55.667969 65.507812 55.425781 65.367188 C 55.183594 65.226562 54.988281 64.886719 54.988281 64.605469 C 54.988281 64.324219 55.183594 64.210938 55.425781 64.351562 C 55.667969 64.492188 55.863281 64.832031 55.863281 65.113281 " fill-opacity="1" fill-rule="nonzero"/><path fill="#30383f" d="M 64.089844 75.808594 L 51.449219 68.484375 L 51.449219 65.15625 L 64.089844 72.480469 L 64.089844 75.808594 " fill-opacity="1" fill-rule="nonzero"/><path fill="#4d92d5" d="M 63.398438 74.195312 L 56.808594 70.378906 L 56.808594 69.472656 L 63.398438 73.292969 L 63.398438 74.195312 " fill-opacity="1" fill-rule="nonzero"/><path fill="#b2aede" d="M 53.238281 67.855469 C 53.238281 68.132812 53.042969 68.246094 52.800781 68.105469 C 52.558594 67.96875 52.367188 67.625 52.367188 67.347656 C 52.367188 67.066406 52.558594 66.953125 52.800781 67.09375 C 53.042969 67.234375 53.238281 67.574219 53.238281 67.855469 " fill-opacity="1" fill-rule="nonzero"/><path fill="#b2aede" d="M 54.550781 68.617188 C 54.550781 68.898438 54.355469 69.011719 54.113281 68.871094 C 53.871094 68.730469 53.675781 68.390625 53.675781 68.109375 C 53.675781 67.832031 53.871094 67.71875 54.113281 67.855469 C 54.355469 67.996094 54.550781 68.335938 54.550781 68.617188 " fill-opacity="1" fill-rule="nonzero"/><path fill="#b2aede" d="M 55.863281 69.382812 C 55.863281 69.660156 55.667969 69.773438 55.425781 69.632812 C 55.183594 69.496094 54.988281 69.152344 54.988281 68.875 C 54.988281 68.59375 55.183594 68.480469 55.425781 68.621094 C 55.667969 68.761719 55.863281 69.101562 55.863281 69.382812 " fill-opacity="1" fill-rule="nonzero"/><path fill="#30383f" d="M 64.089844 80.078125 L 51.449219 72.753906 L 51.449219 69.425781 L 64.089844 76.75 L 64.089844 80.078125 " fill-opacity="1" fill-rule="nonzero"/><path fill="#4d92d5" d="M 63.398438 78.464844 L 56.808594 74.648438 L 56.808594 73.742188 L 63.398438 77.5625 L 63.398438 78.464844 " fill-opacity="1" fill-rule="nonzero"/><path fill="#b2aede" d="M 53.238281 72.125 C 53.238281 72.402344 53.042969 72.515625 52.800781 72.375 C 52.558594 72.238281 52.367188 71.894531 52.367188 71.617188 C 52.367188 71.335938 52.558594 71.222656 52.800781 71.363281 C 53.042969 71.5 53.238281 71.84375 53.238281 72.125 " fill-opacity="1" fill-rule="nonzero"/><path fill="#b2aede" d="M 54.550781 72.886719 C 54.550781 73.167969 54.355469 73.28125 54.113281 73.140625 C 53.871094 73 53.675781 72.660156 53.675781 72.378906 C 53.675781 72.097656 53.871094 71.984375 54.113281 72.125 C 54.355469 72.265625 54.550781 72.605469 54.550781 72.886719 " fill-opacity="1" fill-rule="nonzero"/><path fill="#b2aede" d="M 55.863281 73.648438 C 55.863281 73.929688 55.667969 74.042969 55.425781 73.902344 C 55.183594 73.761719 54.988281 73.421875 54.988281 73.144531 C 54.988281 72.863281 55.183594 72.75 55.425781 72.890625 C 55.667969 73.03125 55.863281 73.371094 55.863281 73.648438 " fill-opacity="1" fill-rule="nonzero"/><path fill="#30383f" d="M 64.089844 84.347656 L 51.449219 77.023438 L 51.449219 73.695312 L 64.089844 81.019531 L 64.089844 84.347656 " fill-opacity="1" fill-rule="nonzero"/><path fill="#4d92d5" d="M 63.398438 82.734375 L 56.808594 78.917969 L 56.808594 78.011719 L 63.398438 81.832031 L 63.398438 82.734375 " fill-opacity="1" fill-rule="nonzero"/><path fill="#b2aede" d="M 53.238281 76.390625 C 53.238281 76.671875 53.042969 76.785156 52.800781 76.644531 C 52.558594 76.503906 52.367188 76.164062 52.367188 75.882812 C 52.367188 75.605469 52.558594 75.492188 52.800781 75.628906 C 53.042969 75.769531 53.238281 76.113281 53.238281 76.390625 " fill-opacity="1" fill-rule="nonzero"/><path fill="#b2aede" d="M 54.550781 77.15625 C 54.550781 77.4375 54.355469 77.550781 54.113281 77.410156 C 53.871094 77.269531 53.675781 76.929688 53.675781 76.648438 C 53.675781 76.367188 53.871094 76.253906 54.113281 76.394531 C 54.355469 76.535156 54.550781 76.875 54.550781 77.15625 " fill-opacity="1" fill-rule="nonzero"/><path fill="#b2aede" d="M 55.863281 77.917969 C 55.863281 78.199219 55.667969 78.3125 55.425781 78.171875 C 55.183594 78.03125 54.988281 77.691406 54.988281 77.410156 C 54.988281 77.132812 55.183594 77.019531 55.425781 77.160156 C 55.667969 77.296875 55.863281 77.640625 55.863281 77.917969 " fill-opacity="1" fill-rule="nonzero"/><path fill="#30383f" d="M 64.089844 88.617188 L 51.449219 81.292969 L 51.449219 77.964844 L 64.089844 85.289062 L 64.089844 88.617188 " fill-opacity="1" fill-rule="nonzero"/><path fill="#4d92d5" d="M 63.398438 87.003906 L 56.808594 83.183594 L 56.808594 82.277344 L 63.398438 86.101562 L 63.398438 87.003906 " fill-opacity="1" fill-rule="nonzero"/><path fill="#b2aede" d="M 53.238281 80.660156 C 53.238281 80.941406 53.042969 81.054688 52.800781 80.914062 C 52.558594 80.773438 52.367188 80.433594 52.367188 80.152344 C 52.367188 79.871094 52.558594 79.761719 52.800781 79.898438 C 53.042969 80.039062 53.238281 80.382812 53.238281 80.660156 " fill-opacity="1" fill-rule="nonzero"/><path fill="#b2aede" d="M 54.550781 81.425781 C 54.550781 81.703125 54.355469 81.820312 54.113281 81.679688 C 53.871094 81.539062 53.675781 81.195312 53.675781 80.917969 C 53.675781 80.636719 53.871094 80.523438 54.113281 80.664062 C 54.355469 80.804688 54.550781 81.144531 54.550781 81.425781 " fill-opacity="1" fill-rule="nonzero"/><path fill="#b2aede" d="M 55.863281 82.1875 C 55.863281 82.46875 55.667969 82.582031 55.425781 82.441406 C 55.183594 82.300781 54.988281 81.960938 54.988281 81.679688 C 54.988281 81.402344 55.183594 81.289062 55.425781 81.429688 C 55.667969 81.566406 55.863281 81.90625 55.863281 82.1875 " fill-opacity="1" fill-rule="nonzero"/><path fill="#30383f" d="M 64.089844 92.886719 L 51.449219 85.558594 L 51.449219 82.230469 L 64.089844 89.558594 L 64.089844 92.886719 " fill-opacity="1" fill-rule="nonzero"/><path fill="#4d92d5" d="M 63.398438 91.273438 L 56.808594 87.453125 L 56.808594 86.546875 L 63.398438 90.367188 L 63.398438 91.273438 " fill-opacity="1" fill-rule="nonzero"/><path fill="#b2aede" d="M 53.238281 84.929688 C 53.238281 85.210938 53.042969 85.324219 52.800781 85.183594 C 52.558594 85.042969 52.367188 84.703125 52.367188 84.421875 C 52.367188 84.140625 52.558594 84.027344 52.800781 84.167969 C 53.042969 84.308594 53.238281 84.648438 53.238281 84.929688 " fill-opacity="1" fill-rule="nonzero"/><path fill="#b2aede" d="M 54.550781 85.695312 C 54.550781 85.972656 54.355469 86.085938 54.113281 85.949219 C 53.871094 85.808594 53.675781 85.464844 53.675781 85.1875 C 53.675781 84.90625 53.871094 84.792969 54.113281 84.933594 C 54.355469 85.074219 54.550781 85.414062 54.550781 85.695312 " fill-opacity="1" fill-rule="nonzero"/><path fill="#b2aede" d="M 55.863281 86.457031 C 55.863281 86.738281 55.667969 86.851562 55.425781 86.710938 C 55.183594 86.570312 54.988281 86.230469 54.988281 85.949219 C 54.988281 85.671875 55.183594 85.558594 55.425781 85.695312 C 55.667969 85.835938 55.863281 86.175781 55.863281 86.457031 " fill-opacity="1" fill-rule="nonzero"/><path fill="#506c7f" d="M 94.613281 32.65625 L 66.152344 49.152344 L 49.386719 39.433594 L 77.84375 22.9375 L 94.613281 32.65625 " fill-opacity="1" fill-rule="nonzero"/><path fill="#30383f" d="M 94.613281 83.652344 L 66.152344 100.148438 L 66.152344 49.101562 L 94.613281 32.605469 L 94.613281 83.652344 " fill-opacity="1" fill-rule="nonzero"/><path fill="#364852" d="M 92.761719 81.40625 L 68.003906 95.757812 L 68.003906 51.347656 L 92.761719 36.996094 L 92.761719 81.40625 " fill-opacity="1" fill-rule="nonzero"/><path fill="#30383f" d="M 91.546875 79.933594 L 69.214844 92.878906 L 69.214844 52.820312 L 91.546875 39.878906 L 91.546875 79.933594 " fill-opacity="1" fill-rule="nonzero"/><path fill="#364852" d="M 89.53125 55.679688 L 71.234375 66.285156 L 71.234375 63.839844 L 89.53125 53.234375 L 89.53125 55.679688 " fill-opacity="1" fill-rule="nonzero"/><path fill="#364852" d="M 89.53125 60.09375 L 71.234375 70.695312 L 71.234375 68.25 L 89.53125 57.648438 L 89.53125 60.09375 " fill-opacity="1" fill-rule="nonzero"/><path fill="#364852" d="M 89.53125 64.503906 L 71.234375 75.109375 L 71.234375 72.664062 L 89.53125 62.058594 L 89.53125 64.503906 " fill-opacity="1" fill-rule="nonzero"/><path fill="#364852" d="M 89.53125 68.917969 L 71.234375 79.519531 L 71.234375 77.074219 L 89.53125 66.46875 L 89.53125 68.917969 " fill-opacity="1" fill-rule="nonzero"/><g clip-path="url(#1add6c45a8)"><path fill="#364852" d="M 85.703125 112.003906 L 68.933594 102.285156 L 68.933594 51.238281 L 85.703125 60.953125 L 85.703125 112.003906 " fill-opacity="1" fill-rule="nonzero"/></g><path fill="#30383f" d="M 76.703125 61.234375 L 71 57.929688 L 71 55.753906 L 76.703125 59.058594 L 76.703125 61.234375 " fill-opacity="1" fill-rule="nonzero"/><path fill="#30383f" d="M 83.636719 65.253906 L 77.933594 61.949219 L 77.933594 59.773438 L 83.636719 63.078125 L 83.636719 65.253906 " fill-opacity="1" fill-rule="nonzero"/><path fill="#30383f" d="M 76.703125 64.625 L 71 61.320312 L 71 59.140625 L 76.703125 62.449219 L 76.703125 64.625 " fill-opacity="1" fill-rule="nonzero"/><path fill="#30383f" d="M 83.636719 68.644531 L 77.933594 65.339844 L 77.933594 63.160156 L 83.636719 66.46875 L 83.636719 68.644531 " fill-opacity="1" fill-rule="nonzero"/><path fill="#30383f" d="M 83.636719 71.4375 L 71 64.113281 L 71 63.082031 L 83.636719 70.40625 L 83.636719 71.4375 " fill-opacity="1" fill-rule="nonzero"/><path fill="#4d92d5" d="M 78.882812 72.097656 L 75.753906 70.285156 C 75.328125 70.039062 74.984375 69.378906 74.984375 68.8125 L 74.984375 68.210938 C 74.984375 67.640625 75.328125 67.378906 75.753906 67.628906 L 78.882812 69.441406 C 79.308594 69.6875 79.652344 70.347656 79.652344 70.914062 L 79.652344 71.515625 C 79.652344 72.082031 79.308594 72.34375 78.882812 72.097656 " fill-opacity="1" fill-rule="nonzero"/><path fill="#30383f" d="M 83.636719 79.125 L 71 71.796875 L 71 68.46875 L 83.636719 75.796875 L 83.636719 79.125 " fill-opacity="1" fill-rule="nonzero"/><path fill="#4d92d5" d="M 82.945312 77.511719 L 76.355469 73.691406 L 76.355469 72.789062 L 82.945312 76.605469 L 82.945312 77.511719 " fill-opacity="1" fill-rule="nonzero"/><path fill="#b2aede" d="M 72.789062 71.167969 C 72.789062 71.449219 72.59375 71.5625 72.351562 71.421875 C 72.109375 71.28125 71.914062 70.941406 71.914062 70.660156 C 71.914062 70.382812 72.109375 70.269531 72.351562 70.40625 C 72.59375 70.546875 72.789062 70.886719 72.789062 71.167969 " fill-opacity="1" fill-rule="nonzero"/><path fill="#b2aede" d="M 74.101562 71.933594 C 74.101562 72.210938 73.90625 72.324219 73.664062 72.183594 C 73.421875 72.046875 73.226562 71.707031 73.226562 71.425781 C 73.226562 71.144531 73.421875 71.03125 73.664062 71.171875 C 73.90625 71.3125 74.101562 71.652344 74.101562 71.933594 " fill-opacity="1" fill-rule="nonzero"/><path fill="#b2aede" d="M 75.410156 72.695312 C 75.410156 72.976562 75.214844 73.089844 74.972656 72.949219 C 74.734375 72.808594 74.535156 72.46875 74.535156 72.1875 C 74.535156 71.910156 74.734375 71.792969 74.972656 71.933594 C 75.214844 72.074219 75.410156 72.417969 75.410156 72.695312 " fill-opacity="1" fill-rule="nonzero"/><path fill="#30383f" d="M 83.636719 83.394531 L 71 76.066406 L 71 72.738281 L 83.636719 80.066406 L 83.636719 83.394531 " fill-opacity="1" fill-rule="nonzero"/><path fill="#4d92d5" d="M 82.945312 81.78125 L 76.355469 77.960938 L 76.355469 77.058594 L 82.945312 80.875 L 82.945312 81.78125 " fill-opacity="1" fill-rule="nonzero"/><path fill="#b2aede" d="M 72.789062 75.4375 C 72.789062 75.71875 72.59375 75.832031 72.351562 75.691406 C 72.109375 75.550781 71.914062 75.210938 71.914062 74.929688 C 71.914062 74.648438 72.109375 74.535156 72.351562 74.675781 C 72.59375 74.816406 72.789062 75.15625 72.789062 75.4375 " fill-opacity="1" fill-rule="nonzero"/><path fill="#b2aede" d="M 74.101562 76.199219 C 74.101562 76.480469 73.90625 76.59375 73.664062 76.453125 C 73.421875 76.3125 73.226562 75.972656 73.226562 75.695312 C 73.226562 75.414062 73.421875 75.300781 73.664062 75.441406 C 73.90625 75.582031 74.101562 75.921875 74.101562 76.199219 " fill-opacity="1" fill-rule="nonzero"/><path fill="#b2aede" d="M 75.410156 76.964844 C 75.410156 77.246094 75.214844 77.359375 74.972656 77.21875 C 74.734375 77.078125 74.535156 76.738281 74.535156 76.457031 C 74.535156 76.175781 74.734375 76.0625 74.972656 76.203125 C 75.214844 76.34375 75.410156 76.683594 75.410156 76.964844 " fill-opacity="1" fill-rule="nonzero"/><path fill="#30383f" d="M 83.636719 87.660156 L 71 80.335938 L 71 77.007812 L 83.636719 84.332031 L 83.636719 87.660156 " fill-opacity="1" fill-rule="nonzero"/><path fill="#4d92d5" d="M 82.945312 86.050781 L 76.355469 82.230469 L 76.355469 81.324219 L 82.945312 85.144531 L 82.945312 86.050781 " fill-opacity="1" fill-rule="nonzero"/><path fill="#b2aede" d="M 72.789062 79.707031 C 72.789062 79.988281 72.59375 80.101562 72.351562 79.960938 C 72.109375 79.820312 71.914062 79.480469 71.914062 79.199219 C 71.914062 78.917969 72.109375 78.804688 72.351562 78.945312 C 72.59375 79.085938 72.789062 79.425781 72.789062 79.707031 " fill-opacity="1" fill-rule="nonzero"/><path fill="#b2aede" d="M 74.101562 80.46875 C 74.101562 80.75 73.90625 80.863281 73.664062 80.722656 C 73.421875 80.582031 73.226562 80.242188 73.226562 79.964844 C 73.226562 79.683594 73.421875 79.570312 73.664062 79.710938 C 73.90625 79.851562 74.101562 80.191406 74.101562 80.46875 " fill-opacity="1" fill-rule="nonzero"/><path fill="#b2aede" d="M 75.410156 81.234375 C 75.410156 81.515625 75.214844 81.628906 74.972656 81.488281 C 74.734375 81.347656 74.535156 81.007812 74.535156 80.726562 C 74.535156 80.445312 74.734375 80.332031 74.972656 80.472656 C 75.214844 80.613281 75.410156 80.953125 75.410156 81.234375 " fill-opacity="1" fill-rule="nonzero"/><path fill="#30383f" d="M 83.636719 91.929688 L 71 84.605469 L 71 81.277344 L 83.636719 88.601562 L 83.636719 91.929688 " fill-opacity="1" fill-rule="nonzero"/><path fill="#4d92d5" d="M 82.945312 90.320312 L 76.355469 86.5 L 76.355469 85.59375 L 82.945312 89.414062 L 82.945312 90.320312 " fill-opacity="1" fill-rule="nonzero"/><path fill="#b2aede" d="M 72.789062 83.976562 C 72.789062 84.253906 72.59375 84.367188 72.351562 84.230469 C 72.109375 84.089844 71.914062 83.746094 71.914062 83.46875 C 71.914062 83.1875 72.109375 83.074219 72.351562 83.214844 C 72.59375 83.355469 72.789062 83.695312 72.789062 83.976562 " fill-opacity="1" fill-rule="nonzero"/><path fill="#b2aede" d="M 74.101562 84.738281 C 74.101562 85.019531 73.90625 85.132812 73.664062 84.992188 C 73.421875 84.851562 73.226562 84.511719 73.226562 84.230469 C 73.226562 83.953125 73.421875 83.839844 73.664062 83.980469 C 73.90625 84.117188 74.101562 84.460938 74.101562 84.738281 " fill-opacity="1" fill-rule="nonzero"/><path fill="#b2aede" d="M 75.410156 85.503906 C 75.410156 85.78125 75.214844 85.894531 74.972656 85.757812 C 74.734375 85.617188 74.535156 85.277344 74.535156 84.996094 C 74.535156 84.714844 74.734375 84.601562 74.972656 84.742188 C 75.214844 84.882812 75.410156 85.222656 75.410156 85.503906 " fill-opacity="1" fill-rule="nonzero"/><path fill="#30383f" d="M 83.636719 96.199219 L 71 88.875 L 71 85.546875 L 83.636719 92.871094 L 83.636719 96.199219 " fill-opacity="1" fill-rule="nonzero"/><path fill="#4d92d5" d="M 82.945312 94.589844 L 76.355469 90.769531 L 76.355469 89.863281 L 82.945312 93.683594 L 82.945312 94.589844 " fill-opacity="1" fill-rule="nonzero"/><path fill="#b2aede" d="M 72.789062 88.242188 C 72.789062 88.523438 72.59375 88.636719 72.351562 88.5 C 72.109375 88.359375 71.914062 88.015625 71.914062 87.738281 C 71.914062 87.457031 72.109375 87.34375 72.351562 87.484375 C 72.59375 87.625 72.789062 87.964844 72.789062 88.242188 " fill-opacity="1" fill-rule="nonzero"/><path fill="#b2aede" d="M 74.101562 89.007812 C 74.101562 89.289062 73.90625 89.402344 73.664062 89.261719 C 73.421875 89.121094 73.226562 88.78125 73.226562 88.5 C 73.226562 88.222656 73.421875 88.109375 73.664062 88.246094 C 73.90625 88.386719 74.101562 88.726562 74.101562 89.007812 " fill-opacity="1" fill-rule="nonzero"/><path fill="#b2aede" d="M 75.410156 89.773438 C 75.410156 90.050781 75.214844 90.164062 74.972656 90.023438 C 74.734375 89.886719 74.535156 89.546875 74.535156 89.265625 C 74.535156 88.984375 74.734375 88.871094 74.972656 89.011719 C 75.214844 89.152344 75.410156 89.492188 75.410156 89.773438 " fill-opacity="1" fill-rule="nonzero"/><path fill="#30383f" d="M 83.636719 100.46875 L 71 93.144531 L 71 89.816406 L 83.636719 97.140625 L 83.636719 100.46875 " fill-opacity="1" fill-rule="nonzero"/><path fill="#4d92d5" d="M 82.945312 98.855469 L 76.355469 95.035156 L 76.355469 94.132812 L 82.945312 97.953125 L 82.945312 98.855469 " fill-opacity="1" fill-rule="nonzero"/><path fill="#b2aede" d="M 72.789062 92.511719 C 72.789062 92.792969 72.59375 92.90625 72.351562 92.765625 C 72.109375 92.628906 71.914062 92.285156 71.914062 92.007812 C 71.914062 91.726562 72.109375 91.613281 72.351562 91.753906 C 72.59375 91.894531 72.789062 92.234375 72.789062 92.511719 " fill-opacity="1" fill-rule="nonzero"/><path fill="#b2aede" d="M 74.101562 93.277344 C 74.101562 93.558594 73.90625 93.671875 73.664062 93.53125 C 73.421875 93.390625 73.226562 93.050781 73.226562 92.769531 C 73.226562 92.492188 73.421875 92.375 73.664062 92.515625 C 73.90625 92.65625 74.101562 92.996094 74.101562 93.277344 " fill-opacity="1" fill-rule="nonzero"/><path fill="#b2aede" d="M 75.410156 94.042969 C 75.410156 94.320312 75.214844 94.433594 74.972656 94.292969 C 74.734375 94.15625 74.535156 93.8125 74.535156 93.535156 C 74.535156 93.253906 74.734375 93.140625 74.972656 93.28125 C 75.214844 93.421875 75.410156 93.761719 75.410156 94.042969 " fill-opacity="1" fill-rule="nonzero"/><path fill="#30383f" d="M 83.636719 104.738281 L 71 97.414062 L 71 94.085938 L 83.636719 101.410156 L 83.636719 104.738281 " fill-opacity="1" fill-rule="nonzero"/><path fill="#4d92d5" d="M 82.945312 103.125 L 76.355469 99.304688 L 76.355469 98.402344 L 82.945312 102.222656 L 82.945312 103.125 " fill-opacity="1" fill-rule="nonzero"/><path fill="#b2aede" d="M 72.789062 96.78125 C 72.789062 97.0625 72.59375 97.175781 72.351562 97.035156 C 72.109375 96.894531 71.914062 96.554688 71.914062 96.277344 C 71.914062 95.996094 72.109375 95.882812 72.351562 96.023438 C 72.59375 96.160156 72.789062 96.5 72.789062 96.78125 " fill-opacity="1" fill-rule="nonzero"/><path fill="#b2aede" d="M 74.101562 97.546875 C 74.101562 97.824219 73.90625 97.941406 73.664062 97.800781 C 73.421875 97.660156 73.226562 97.320312 73.226562 97.039062 C 73.226562 96.757812 73.421875 96.644531 73.664062 96.785156 C 73.90625 96.925781 74.101562 97.265625 74.101562 97.546875 " fill-opacity="1" fill-rule="nonzero"/><path fill="#b2aede" d="M 75.410156 98.308594 C 75.410156 98.589844 75.214844 98.703125 74.972656 98.5625 C 74.734375 98.421875 74.535156 98.082031 74.535156 97.804688 C 74.535156 97.523438 74.734375 97.410156 74.972656 97.550781 C 75.214844 97.6875 75.410156 98.03125 75.410156 98.308594 " fill-opacity="1" fill-rule="nonzero"/><g clip-path="url(#11907127a9)"><path fill="#506c7f" d="M 114.160156 44.507812 L 85.703125 61.003906 L 68.933594 51.285156 L 97.394531 34.792969 L 114.160156 44.507812 " fill-opacity="1" fill-rule="nonzero"/></g><g clip-path="url(#a42c985842)"><path fill="#30383f" d="M 114.160156 95.507812 L 85.703125 112.003906 L 85.703125 60.953125 L 114.160156 44.460938 L 114.160156 95.507812 " fill-opacity="1" fill-rule="nonzero"/></g><path fill="#364852" d="M 112.3125 93.261719 L 87.550781 107.613281 L 87.550781 63.199219 L 112.3125 48.851562 L 112.3125 93.261719 " fill-opacity="1" fill-rule="nonzero"/><path fill="#30383f" d="M 111.097656 91.785156 L 88.765625 104.730469 L 88.765625 64.675781 L 111.097656 51.730469 L 111.097656 91.785156 " fill-opacity="1" fill-rule="nonzero"/><path fill="#364852" d="M 109.082031 67.53125 L 90.78125 78.136719 L 90.78125 75.691406 L 109.082031 65.089844 L 109.082031 67.53125 " fill-opacity="1" fill-rule="nonzero"/><path fill="#364852" d="M 109.082031 71.945312 L 90.78125 82.550781 L 90.78125 80.105469 L 109.082031 69.5 L 109.082031 71.945312 " fill-opacity="1" fill-rule="nonzero"/><path fill="#364852" d="M 109.082031 76.355469 L 90.78125 86.960938 L 90.78125 84.515625 L 109.082031 73.910156 L 109.082031 76.355469 " fill-opacity="1" fill-rule="nonzero"/><path fill="#364852" d="M 109.082031 80.769531 L 90.78125 91.375 L 90.78125 88.925781 L 109.082031 78.324219 L 109.082031 80.769531 " fill-opacity="1" fill-rule="nonzero"/><path fill="#82c4ed" d="M 43.515625 3.5 L 47.988281 0.890625 C 49.507812 0.00390625 51.609375 0.125 53.929688 1.46875 C 54.875 2.019531 55.777344 2.714844 56.613281 3.542969 L 52.140625 6.152344 C 51.304688 5.324219 50.398438 4.628906 49.453125 4.082031 C 47.136719 2.738281 45.035156 2.613281 43.515625 3.5 " fill-opacity="1" fill-rule="nonzero"/><path fill="#82c4ed" d="M 53.9375 4.441406 L 58.410156 1.832031 C 60.390625 0.675781 63.132812 0.84375 66.15625 2.59375 C 67.503906 3.378906 68.800781 4.410156 69.988281 5.644531 L 65.515625 8.253906 C 64.328125 7.019531 63.03125 5.988281 61.679688 5.203125 C 58.65625 3.453125 55.917969 3.289062 53.9375 4.441406 " fill-opacity="1" fill-rule="nonzero"/><path fill="#82c4ed" d="M 67.839844 6.042969 L 72.3125 3.433594 C 74.898438 1.925781 78.476562 2.152344 82.425781 4.441406 L 77.953125 7.050781 C 74.003906 4.761719 70.425781 4.535156 67.839844 6.042969 " fill-opacity="1" fill-rule="nonzero"/><path fill="#82c4ed" d="M 100.484375 44.886719 L 96.011719 47.496094 C 97.511719 46.621094 98.4375 44.765625 98.445312 42.117188 C 98.457031 37.539062 95.671875 32.054688 91.949219 28.925781 L 96.421875 26.316406 C 100.148438 29.445312 102.933594 34.929688 102.917969 39.511719 C 102.910156 42.15625 101.984375 44.011719 100.484375 44.886719 " fill-opacity="1" fill-rule="nonzero"/><path fill="#82c4ed" d="M 77.953125 7.050781 L 82.425781 4.441406 C 89.492188 8.535156 95.324219 17.878906 96.421875 26.316406 L 91.949219 28.925781 C 90.847656 20.488281 85.019531 11.144531 77.953125 7.050781 " fill-opacity="1" fill-rule="nonzero"/><path fill="#4d92d5" d="M 77.953125 7.050781 C 85.019531 11.144531 90.847656 20.488281 91.949219 28.925781 C 95.671875 32.054688 98.457031 37.539062 98.445312 42.117188 C 98.429688 47.449219 94.675781 49.578125 90.070312 46.910156 C 88.085938 45.757812 86.292969 43.941406 84.875 41.777344 C 82.792969 41.910156 80.414062 41.3125 77.859375 39.832031 C 74.550781 37.914062 71.542969 34.875 69.132812 31.308594 C 67.152344 32.316406 64.515625 32.097656 61.609375 30.414062 C 59.152344 28.992188 56.871094 26.714844 55.054688 24.070312 C 53.5625 24.800781 51.589844 24.605469 49.398438 23.339844 C 44.792969 20.667969 41.0625 14.199219 41.078125 8.871094 C 41.09375 3.558594 44.847656 1.410156 49.453125 4.082031 C 50.398438 4.628906 51.304688 5.324219 52.140625 6.152344 C 54.015625 3.367188 57.589844 2.832031 61.679688 5.203125 C 63.03125 5.988281 64.328125 7.019531 65.515625 8.253906 C 67.960938 4.628906 72.617188 3.957031 77.953125 7.050781 " fill-opacity="1" fill-rule="nonzero"/><path fill="#dddaf1" d="M 93.816406 45.9375 C 93.035156 45.9375 92.105469 45.636719 91.128906 45.070312 C 89.476562 44.113281 87.929688 42.570312 86.644531 40.613281 L 85.96875 39.578125 L 84.742188 39.65625 C 84.59375 39.667969 84.449219 39.671875 84.300781 39.671875 C 82.652344 39.671875 80.839844 39.105469 78.917969 37.992188 C 76 36.304688 73.222656 33.582031 70.878906 30.117188 L 69.835938 28.570312 L 68.175781 29.414062 C 67.683594 29.664062 67.121094 29.789062 66.496094 29.789062 C 65.363281 29.789062 64.039062 29.371094 62.667969 28.574219 C 60.578125 27.363281 58.492188 25.335938 56.796875 22.867188 L 55.761719 21.363281 L 54.128906 22.160156 C 53.84375 22.300781 53.511719 22.371094 53.140625 22.371094 C 52.371094 22.371094 51.441406 22.070312 50.457031 21.5 C 46.507812 19.210938 43.179688 13.429688 43.195312 8.875 C 43.199219 7.726562 43.449219 5.054688 45.710938 5.054688 C 46.492188 5.054688 47.421875 5.355469 48.394531 5.917969 C 49.1875 6.378906 49.949219 6.964844 50.652344 7.664062 L 52.464844 9.453125 L 53.890625 7.339844 C 54.566406 6.339844 55.542969 5.828125 56.796875 5.828125 C 57.925781 5.828125 59.25 6.25 60.625 7.042969 C 61.800781 7.726562 62.933594 8.628906 63.996094 9.730469 L 65.804688 11.613281 L 67.265625 9.445312 C 68.269531 7.960938 69.710938 7.207031 71.558594 7.207031 C 73.152344 7.207031 74.996094 7.792969 76.894531 8.890625 C 83.253906 12.574219 88.824219 21.308594 89.851562 29.203125 L 89.957031 30.023438 L 90.589844 30.558594 C 93.925781 33.355469 96.339844 38.214844 96.332031 42.113281 C 96.324219 43.261719 96.074219 45.933594 93.816406 45.9375 " fill-opacity="1" fill-rule="nonzero"/></svg>